<svg xmlns="http://www.w3.org/2000/svg" xmlns:xlink="http://www.w3.org/1999/xlink" version="1.1" x="0px" y="0px" viewBox="0 0 100 125" enable-background="new 0 0 100 100" xml:space="preserve"><g><g><path d="M27.5,60c-5.2,0-9.5-4.3-9.5-9.5s4.3-9.5,9.5-9.5s9.5,4.3,9.5,9.5S32.7,60,27.5,60z M27.5,43c-4.1,0-7.5,3.4-7.5,7.5    s3.4,7.5,7.5,7.5s7.5-3.4,7.5-7.5S31.6,43,27.5,43z"/></g><g><path d="M50.5,60c-5.2,0-9.5-4.3-9.5-9.5s4.3-9.5,9.5-9.5s9.5,4.3,9.5,9.5S55.7,60,50.5,60z M50.5,43c-4.1,0-7.5,3.4-7.5,7.5    s3.4,7.5,7.5,7.5s7.5-3.4,7.5-7.5S54.6,43,50.5,43z"/></g><g><path d="M73.5,60c-5.2,0-9.5-4.3-9.5-9.5s4.3-9.5,9.5-9.5s9.5,4.3,9.5,9.5S78.7,60,73.5,60z M73.5,43c-4.1,0-7.5,3.4-7.5,7.5    s3.4,7.5,7.5,7.5s7.5-3.4,7.5-7.5S77.6,43,73.5,43z"/></g></g><text x="0" y="115" fill="#000000" font-size="5px" font-weight="bold" font-family="'Helvetica Neue', Helvetica, Arial-Unicode, Arial, Sans-serif">Created by Yaroslav Samoilov</text><text x="0" y="120" fill="#000000" font-size="5px" font-weight="bold" font-family="'Helvetica Neue', Helvetica, Arial-Unicode, Arial, Sans-serif">from the Noun Project</text></svg>