<svg xmlns="http://www.w3.org/2000/svg" xmlns:xlink="http://www.w3.org/1999/xlink" version="1.1" x="0px" y="0px" viewBox="0 0 595.3 1052.375" enable-background="new 0 0 595.3 841.9" xml:space="preserve"><path d="M372.9,320.4H230.1c-32,0-44.3-41.9-17.3-59c0.3-0.2,0.5-0.3,0.8-0.5c5-3.1,10.8-4.7,16.7-4.7h142.3  c5.9,0,11.7,1.6,16.7,4.7c0.3,0.2,0.5,0.3,0.8,0.5C417.2,278.5,404.8,320.4,372.9,320.4z M379.9,480H223.1  c-31,0-43.7,39.7-18.5,57.8c0.2,0.2,0.5,0.3,0.7,0.5c5.4,3.8,11.9,5.9,18.5,5.9h155.4c6.6,0,13.1-2.1,18.5-5.9  c0.2-0.2,0.5-0.3,0.7-0.5C423.6,519.7,410.9,480,379.9,480z M468,401c-0.1-17.3-14.3-31.2-31.6-31.2H166.6  c-17.3,0-31.4,13.9-31.6,31.2c0,0.5,0,0.9,0,1.4c0,0.1,0,0.2,0,0.3c0,17.3,14.2,31.2,31.5,31.2h269.9c17.3,0,31.5-13.9,31.5-31.2  c0-0.1,0-0.2,0-0.3C468,401.9,468,401.5,468,401z"/><text x="0" y="856.9" fill="#000000" font-size="5px" font-weight="bold" font-family="'Helvetica Neue', Helvetica, Arial-Unicode, Arial, Sans-serif">Created by Jorge Mateo</text><text x="0" y="861.9" fill="#000000" font-size="5px" font-weight="bold" font-family="'Helvetica Neue', Helvetica, Arial-Unicode, Arial, Sans-serif">from the Noun Project</text></svg>